<svg xmlns="http://www.w3.org/2000/svg" xmlns:xlink="http://www.w3.org/1999/xlink" width="150" zoomAndPan="magnify" viewBox="0 0 112.5 112.499997" height="150" preserveAspectRatio="xMidYMid meet" version="1.0"><defs><g/><clipPath id="6cce72b968"><path d="M 8 0 L 104 0 L 104 112.003906 L 8 112.003906 Z M 8 0 " clip-rule="nonzero"/></clipPath><clipPath id="7fcb197d5e"><path d="M 0.175781 5.785156 L 95.828125 5.785156 L 95.828125 107.414062 L 0.175781 107.414062 Z M 0.175781 5.785156 " clip-rule="nonzero"/></clipPath><clipPath id="ca7a4b8615"><path d="M 3.160156 5.785156 L 92.839844 5.785156 C 93.632812 5.785156 94.394531 6.097656 94.953125 6.65625 C 95.511719 7.21875 95.828125 7.976562 95.828125 8.769531 L 95.828125 104.070312 C 95.828125 104.863281 95.511719 105.621094 94.953125 106.183594 C 94.394531 106.742188 93.632812 107.054688 92.839844 107.054688 L 3.160156 107.054688 C 2.367188 107.054688 1.609375 106.742188 1.050781 106.183594 C 0.488281 105.621094 0.175781 104.863281 0.175781 104.070312 L 0.175781 8.769531 C 0.175781 7.976562 0.488281 7.21875 1.050781 6.65625 C 1.609375 6.097656 2.367188 5.785156 3.160156 5.785156 Z M 3.160156 5.785156 " clip-rule="nonzero"/></clipPath><clipPath id="d3bdc1636b"><path d="M 0.175781 0.785156 L 95.828125 0.785156 L 95.828125 102.28125 L 0.175781 102.28125 Z M 0.175781 0.785156 " clip-rule="nonzero"/></clipPath><clipPath id="8698151b82"><path d="M 3.160156 0.785156 L 92.839844 0.785156 C 93.632812 0.785156 94.394531 1.097656 94.953125 1.65625 C 95.511719 2.21875 95.828125 2.976562 95.828125 3.769531 L 95.828125 99.070312 C 95.828125 99.863281 95.511719 100.621094 94.953125 101.183594 C 94.394531 101.742188 93.632812 102.054688 92.839844 102.054688 L 3.160156 102.054688 C 2.367188 102.054688 1.609375 101.742188 1.050781 101.183594 C 0.488281 100.621094 0.175781 99.863281 0.175781 99.070312 L 0.175781 3.769531 C 0.175781 2.976562 0.488281 2.21875 1.050781 1.65625 C 1.609375 1.097656 2.367188 0.785156 3.160156 0.785156 Z M 3.160156 0.785156 " clip-rule="nonzero"/></clipPath><clipPath id="33f8c90e19"><rect x="0" width="96" y="0" height="103"/></clipPath><clipPath id="6ac4688ea3"><rect x="0" width="96" y="0" height="113"/></clipPath></defs><g clip-path="url(#6cce72b968)"><g transform="matrix(1, 0, 0, 1, 8, -0.000000000000000624)"><g clip-path="url(#6ac4688ea3)"><g clip-path="url(#7fcb197d5e)"><g clip-path="url(#ca7a4b8615)"><g transform="matrix(1, 0, 0, 1, 0, 5)"><g clip-path="url(#33f8c90e19)"><g clip-path="url(#d3bdc1636b)"><g clip-path="url(#8698151b82)"><path fill="#ffffff" d="M 0.175781 0.785156 L 95.828125 0.785156 L 95.828125 102.042969 L 0.175781 102.042969 Z M 0.175781 0.785156 " fill-opacity="1" fill-rule="nonzero"/></g></g></g></g></g></g><g fill="#d80505" fill-opacity="1"><g transform="translate(8.343792, 99.50943)"><g><path d="M 22.078125 -36.1875 L 22.078125 0 L 11.96875 0 L 11.96875 -87.03125 L 35.828125 -87.03125 C 46.503906 -87.03125 54.390625 -84.984375 59.484375 -80.890625 C 64.585938 -76.804688 67.140625 -70.65625 67.140625 -62.4375 C 67.140625 -50.925781 61.304688 -43.148438 49.640625 -39.109375 L 73.28125 0 L 61.3125 0 L 40.234375 -36.1875 Z M 22.078125 -44.875 L 35.953125 -44.875 C 43.097656 -44.875 48.335938 -46.289062 51.671875 -49.125 C 55.003906 -51.96875 56.671875 -56.226562 56.671875 -61.90625 C 56.671875 -67.65625 54.972656 -71.800781 51.578125 -74.34375 C 48.179688 -76.882812 42.734375 -78.15625 35.234375 -78.15625 L 22.078125 -78.15625 Z M 22.078125 -44.875 "/></g></g></g></g></g></g></svg>